<svg width="19" height="14" viewBox="0 0 19 14" fill="none" xmlns="http://www.w3.org/2000/svg">
<path d="M0 0.95C0 0.698044 0.100089 0.456408 0.278249 0.278249C0.456408 0.100089 0.698044 0 0.95 0H18.05C18.302 0 18.5436 0.100089 18.7218 0.278249C18.8999 0.456408 19 0.698044 19 0.95C19 1.20196 18.8999 1.44359 18.7218 1.62175C18.5436 1.79991 18.302 1.9 18.05 1.9H0.95C0.698044 1.9 0.456408 1.79991 0.278249 1.62175C0.100089 1.44359 0 1.20196 0 0.95V0.95Z" fill="#36D2B9"/>
<path d="M0 6.68041C0 6.42845 0.100089 6.18682 0.278249 6.00866C0.456408 5.8305 0.698044 5.73041 0.95 5.73041H18.05C18.302 5.73041 18.5436 5.8305 18.7218 6.00866C18.8999 6.18682 19 6.42845 19 6.68041C19 6.93236 18.8999 7.174 18.7218 7.35216C18.5436 7.53032 18.302 7.63041 18.05 7.63041H0.95C0.698044 7.63041 0.456408 7.53032 0.278249 7.35216C0.100089 7.174 0 6.93236 0 6.68041V6.68041Z" fill="#36D2B9"/>
<path d="M0.95 11.4608C0.698044 11.4608 0.456408 11.5609 0.278249 11.7391C0.100089 11.9172 0 12.1589 0 12.4108C0 12.6628 0.100089 12.9044 0.278249 13.0826C0.456408 13.2607 0.698044 13.3608 0.95 13.3608H18.05C18.302 13.3608 18.5436 13.2607 18.7218 13.0826C18.8999 12.9044 19 12.6628 19 12.4108C19 12.1589 18.8999 11.9172 18.7218 11.7391C18.5436 11.5609 18.302 11.4608 18.05 11.4608H0.95Z" fill="#36D2B9"/>
</svg>
