<svg width="28" height="28" viewBox="0 0 28 28" fill="none" xmlns="http://www.w3.org/2000/svg">
<path fill-rule="evenodd" clip-rule="evenodd" d="M26.25 3.5C26.25 3.03587 26.0656 2.59075 25.7374 2.26256C25.4092 1.93437 24.9641 1.75 24.5 1.75H3.5C3.03587 1.75 2.59075 1.93437 2.26256 2.26256C1.93437 2.59075 1.75 3.03587 1.75 3.5V24.5C1.75 24.9641 1.93437 25.4092 2.26256 25.7374C2.59075 26.0656 3.03587 26.25 3.5 26.25H24.5C24.9641 26.25 25.4092 26.0656 25.7374 25.7374C26.0656 25.4092 26.25 24.9641 26.25 24.5V3.5ZM0 3.5C0 2.57174 0.368749 1.6815 1.02513 1.02513C1.6815 0.368749 2.57174 0 3.5 0L24.5 0C25.4283 0 26.3185 0.368749 26.9749 1.02513C27.6313 1.6815 28 2.57174 28 3.5V24.5C28 25.4283 27.6313 26.3185 26.9749 26.9749C26.3185 27.6313 25.4283 28 24.5 28H3.5C2.57174 28 1.6815 27.6313 1.02513 26.9749C0.368749 26.3185 0 25.4283 0 24.5V3.5ZM7.875 13.125C7.64294 13.125 7.42038 13.2172 7.25628 13.3813C7.09219 13.5454 7 13.7679 7 14C7 14.2321 7.09219 14.4546 7.25628 14.6187C7.42038 14.7828 7.64294 14.875 7.875 14.875H18.0128L14.2555 18.6305C14.1741 18.7119 14.1096 18.8084 14.0656 18.9147C14.0216 19.021 13.9989 19.1349 13.9989 19.25C13.9989 19.3651 14.0216 19.479 14.0656 19.5853C14.1096 19.6916 14.1741 19.7881 14.2555 19.8695C14.3369 19.9509 14.4334 20.0154 14.5397 20.0594C14.646 20.1034 14.7599 20.1261 14.875 20.1261C14.9901 20.1261 15.104 20.1034 15.2103 20.0594C15.3166 20.0154 15.4131 19.9509 15.4945 19.8695L20.7445 14.6195C20.826 14.5382 20.8906 14.4417 20.9347 14.3354C20.9789 14.2291 21.0016 14.1151 21.0016 14C21.0016 13.8849 20.9789 13.7709 20.9347 13.6646C20.8906 13.5583 20.826 13.4618 20.7445 13.3805L15.4945 8.1305C15.4131 8.04915 15.3166 7.98461 15.2103 7.94058C15.104 7.89656 14.9901 7.87389 14.875 7.87389C14.7599 7.87389 14.646 7.89656 14.5397 7.94058C14.4334 7.98461 14.3369 8.04915 14.2555 8.1305C14.1741 8.21185 14.1096 8.30843 14.0656 8.41473C14.0216 8.52102 13.9989 8.63495 13.9989 8.75C13.9989 8.86505 14.0216 8.97898 14.0656 9.08527C14.1096 9.19157 14.1741 9.28815 14.2555 9.3695L18.0128 13.125H7.875Z" fill="#3BE0D9"/>
</svg>
