<svg width="16" height="16" viewBox="0 0 17 17" fill="none" xmlns="http://www.w3.org/2000/svg">
<path d="M16.1955 6.6558C16.2975 7.19136 16.353 7.75129 16.353 8.33561C16.353 12.9061 13.2315 16.156 8.51682 16.156C7.44464 16.1563 6.38291 15.9496 5.39228 15.5477C4.40166 15.1458 3.50156 14.5565 2.74342 13.8136C1.98527 13.0706 1.38395 12.1886 0.973793 11.2179C0.56364 10.2471 0.352701 9.20667 0.353028 8.15601C0.352701 7.10534 0.56364 6.06491 0.973793 5.09416C1.38395 4.12341 1.98527 3.24137 2.74342 2.49844C3.50156 1.7555 4.40166 1.16624 5.39228 0.764317C6.38291 0.362393 7.44464 0.155686 8.51682 0.156006C10.7211 0.156006 12.5631 0.950805 13.9762 2.24134L11.6749 4.49652V4.49083C10.8182 3.69115 9.73094 3.28075 8.51682 3.28075C5.8232 3.28075 3.6338 5.51074 3.6338 8.15113C3.6338 10.7907 5.8232 13.0256 8.51682 13.0256C10.9608 13.0256 12.6244 11.6562 12.9661 9.77567H8.51682V6.6558H16.1963H16.1955Z" fill="white"/>
</svg>
