<svg width="13" height="14" viewBox="0 0 13 14" fill="none" xmlns="http://www.w3.org/2000/svg">
<path d="M0.834272 7.85224L10.1531 7.85224L6.08184 12.0329C5.75648 12.3671 5.75648 12.9153 6.08184 13.2495C6.15903 13.3289 6.2507 13.3919 6.35163 13.4349C6.45255 13.4779 6.56074 13.5 6.67001 13.5C6.77927 13.5 6.88746 13.4779 6.98838 13.4349C7.08931 13.3919 7.18099 13.3289 7.25817 13.2495L12.756 7.60379C12.8334 7.52454 12.8947 7.43039 12.9366 7.32676C12.9785 7.22312 13 7.11202 13 6.99982C13 6.88762 12.9784 6.77652 12.9366 6.67288C12.8947 6.56924 12.8334 6.4751 12.756 6.39584L7.25817 0.750174C7.18093 0.670859 7.08923 0.607944 6.98832 0.565019C6.8874 0.522093 6.77924 0.500001 6.67001 0.500001C6.56077 0.500001 6.45261 0.522093 6.35169 0.565019C6.25078 0.607944 6.15908 0.670859 6.08184 0.750174C6.0046 0.829489 5.94334 0.92365 5.90153 1.02728C5.85973 1.13091 5.83822 1.24198 5.83822 1.35415C5.83822 1.46632 5.85973 1.57739 5.90153 1.68102C5.94334 1.78465 6.0046 1.87881 6.08184 1.95813L10.1531 6.13883L0.834272 6.13883C0.375422 6.13883 -6.09831e-07 6.52435 -5.68638e-07 6.99554C-5.27446e-07 7.46672 0.375422 7.85224 0.834272 7.85224Z" fill="white"/>
</svg>
