<svg width="35" height="35" viewBox="0 0 35 35" fill="none" xmlns="http://www.w3.org/2000/svg">
<circle cx="17.5" cy="17.5" r="17.5" fill="#FFC1BD"/>
<path d="M24.7077 13.5424C24.6264 13.2453 24.4714 12.9746 24.2577 12.7567C24.044 12.5387 23.7789 12.3809 23.4881 12.2984C22.3962 12 18.0067 12 18.0067 12C18.0067 12 13.6255 11.9929 12.5222 12.2984C12.2318 12.3812 11.9672 12.5392 11.754 12.7572C11.5408 12.9751 11.3862 13.2455 11.3052 13.5424C11.0978 14.685 10.9957 15.8449 11.0001 17.0069C10.9981 18.1634 11.1002 19.3176 11.3052 20.4549C11.3865 20.7519 11.5411 21.0226 11.7543 21.2409C11.9674 21.4592 12.2318 21.6179 12.5222 21.7016C13.6141 22 18.0067 22 18.0067 22C18.0067 22 22.3852 22 23.4881 21.7016C23.7789 21.6182 24.0439 21.4598 24.2575 21.2414C24.4711 21.0231 24.6262 20.7522 24.7077 20.4549C24.9086 19.3183 25.0066 18.1624 24.9996 17.0069C25.0066 15.8439 24.9108 14.6862 24.7077 13.5424V13.5424ZM16.6045 19.1483V14.8562L20.2583 17.0069L16.6045 19.1483Z" fill="#F44343"/>
</svg>
