<svg width="22" height="15" viewBox="0 0 22 15" fill="none" xmlns="http://www.w3.org/2000/svg">
<path d="M2.03657 4.48263L2.05526 4.38439C1.99259 4.37248 1.93777 4.34125 1.89925 4.2977C1.86092 4.25437 1.84091 4.20148 1.84074 4.14808L1.84074 2.02642C1.84074 2.02641 1.84074 2.02639 1.84074 2.02637C1.84082 1.96485 1.86725 1.90409 1.91718 1.85797C1.96739 1.81159 2.03705 1.78428 2.1112 1.78421L7.56667 1.78421V13.2158H2.1112C2.03705 13.2157 1.96739 13.1884 1.91718 13.142C1.86724 13.0959 1.84081 13.0351 1.84074 12.9736L1.84074 10.8519C1.84091 10.7985 1.86092 10.7456 1.89925 10.7023C1.93777 10.6588 1.99259 10.6275 2.05526 10.6156C2.82891 10.4697 3.52574 10.0811 4.0271 9.51388C4.52864 8.94645 4.80361 8.23509 4.80361 7.5C4.80361 6.76491 4.52864 6.05355 4.0271 5.48612C3.52571 4.91887 2.82882 4.5303 2.05511 4.38436L2.03657 4.48263ZM2.03657 4.48263C2.78949 4.62464 3.46618 5.00252 3.95217 5.55235C4.43816 6.10218 4.70361 6.79019 4.70361 7.5C4.70361 8.20981 4.43816 8.89782 3.95217 9.44765C3.46618 9.99748 2.78949 10.3754 2.03657 10.5174L1.74074 4.14822C1.74095 4.22687 1.77048 4.30306 1.82435 4.36396C1.87823 4.42487 1.95317 4.46677 2.03657 4.48263ZM20.1293 5.25142L20.1294 5.2514C20.4008 5.19982 20.6462 5.06323 20.8235 4.86285C21.001 4.66229 21.0993 4.41009 21.1 4.14851V4.14822V2.02632V2.0262C21.0996 1.72494 20.9699 1.43788 20.7421 1.22747C20.5145 1.0173 20.2076 0.900318 19.889 0.9H19.8889L2.11111 0.9L2.11101 0.9C1.79238 0.900318 1.48547 1.0173 1.25794 1.22747C1.03014 1.43788 0.900353 1.72494 0.9 2.0262V2.02632L0.9 4.14822L0.9 4.1485C0.900736 4.41009 0.999034 4.66229 1.17651 4.86285C1.35382 5.06323 1.5992 5.19982 1.87059 5.2514L1.8707 5.25142C2.43537 5.35809 2.94133 5.64136 3.30379 6.05157C3.6661 6.4616 3.86296 6.9733 3.86296 7.5C3.86296 8.0267 3.6661 8.5384 3.30379 8.94843C2.94133 9.35864 2.43537 9.64191 1.8707 9.74858L1.87059 9.7486C1.5992 9.80018 1.35382 9.93677 1.17651 10.1371C0.999034 10.3377 0.900736 10.5899 0.9 10.8515V10.8518L0.9 12.9737L0.9 12.9738C0.900353 13.2751 1.03014 13.5621 1.25794 13.7725C1.48547 13.9827 1.79238 14.0997 2.11101 14.1H2.11111H19.8889H19.889C20.2076 14.0997 20.5145 13.9827 20.7421 13.7725C20.9699 13.5621 21.0996 13.2751 21.1 12.9738V12.9737V10.8518V10.8515C21.0993 10.5899 21.001 10.3377 20.8235 10.1371C20.6462 9.93677 20.4008 9.80018 20.1294 9.7486L20.1293 9.74858C19.5646 9.64191 19.0587 9.35864 18.6962 8.94843C18.3339 8.5384 18.137 8.0267 18.137 7.5C18.137 6.9733 18.3339 6.4616 18.6962 6.05157C19.0587 5.64136 19.5646 5.35809 20.1293 5.25142ZM17.1963 7.49978V7.50022C17.1979 8.23486 17.4735 8.94541 17.9747 9.51249C18.4758 10.0794 19.1718 10.4683 19.9447 10.6156L19.9447 10.6156C20.0074 10.6275 20.0622 10.6588 20.1007 10.7023C20.1391 10.7457 20.1591 10.7986 20.1593 10.852V12.9736C20.1592 13.0351 20.1328 13.0959 20.0828 13.142C20.0326 13.1884 19.963 13.2157 19.8888 13.2158H8.50741V1.78421L19.8888 1.78421C19.8888 1.78421 19.8888 1.78421 19.8889 1.78421C19.963 1.78429 20.0326 1.8116 20.0828 1.85797C20.1328 1.9041 20.1592 1.96488 20.1593 2.02642V4.14796C20.1591 4.2014 20.1391 4.25434 20.1007 4.2977C20.0622 4.34125 20.0074 4.37248 19.9447 4.38439L19.9447 4.3844C19.1718 4.53168 18.4758 4.92061 17.9747 5.48751C17.4735 6.05459 17.1979 6.76514 17.1963 7.49978Z" fill="#888888" stroke="#888888" stroke-width="0.2"/>
<path d="M13.298 6.88595C13.298 7.24995 13.204 7.52995 13.016 7.72595C12.832 7.92195 12.59 8.01995 12.29 8.01995C12.142 8.01995 12.006 7.99595 11.882 7.94795C11.758 7.89595 11.652 7.82195 11.564 7.72595C11.476 7.62995 11.406 7.51195 11.354 7.37195C11.306 7.22795 11.282 7.06595 11.282 6.88595C11.282 6.51795 11.374 6.23795 11.558 6.04595C11.746 5.84995 11.99 5.75195 12.29 5.75195C12.59 5.75195 12.832 5.84995 13.016 6.04595C13.204 6.23795 13.298 6.51795 13.298 6.88595ZM12.728 6.88595C12.728 6.67395 12.688 6.51595 12.608 6.41195C12.532 6.30395 12.426 6.24995 12.29 6.24995C12.154 6.24995 12.048 6.30395 11.972 6.41195C11.896 6.51595 11.858 6.67395 11.858 6.88595C11.858 7.09795 11.896 7.25795 11.972 7.36595C12.048 7.46995 12.154 7.52195 12.29 7.52195C12.426 7.52195 12.532 7.46995 12.608 7.36595C12.688 7.25795 12.728 7.09795 12.728 6.88595ZM14.516 5.84195H15.206L12.86 9.99995H12.17L14.516 5.84195ZM16.1 8.96195C16.1 9.32595 16.006 9.60595 15.818 9.80195C15.634 9.99795 15.392 10.096 15.092 10.096C14.944 10.096 14.808 10.07 14.684 10.018C14.56 9.96995 14.454 9.89795 14.366 9.80195C14.278 9.70595 14.208 9.58795 14.156 9.44795C14.108 9.30395 14.084 9.14195 14.084 8.96195C14.084 8.59395 14.176 8.31395 14.36 8.12195C14.548 7.92595 14.792 7.82795 15.092 7.82795C15.392 7.82795 15.634 7.92595 15.818 8.12195C16.006 8.31395 16.1 8.59395 16.1 8.96195ZM15.53 8.96195C15.53 8.74995 15.49 8.59195 15.41 8.48795C15.334 8.37995 15.228 8.32595 15.092 8.32595C14.956 8.32595 14.85 8.37995 14.774 8.48795C14.698 8.59195 14.66 8.74995 14.66 8.96195C14.66 9.17395 14.698 9.33395 14.774 9.44195C14.85 9.54595 14.956 9.59795 15.092 9.59795C15.228 9.59795 15.334 9.54595 15.41 9.44195C15.49 9.33395 15.53 9.17395 15.53 8.96195Z" fill="#888888"/>
</svg>
