<svg width="17" height="13" viewBox="0 0 17 13" fill="none" xmlns="http://www.w3.org/2000/svg">
<path opacity="0.9" d="M11.8979 6.12199L16.8829 11.107L16.1754 11.814L11.1904 6.82899L11.8979 6.12199Z" fill="#B2B2B2"/>
<path opacity="0.9" d="M5.13896 6.14349L5.84596 6.85049L0.895965 11.8005L0.188965 11.0955L5.13896 6.14349Z" fill="#B2B2B2"/>
<path d="M8.4999 8.94999C7.7499 8.94999 6.9499 8.64999 6.3999 8.04999L0.149902 1.84999L0.849902 1.14999L7.0999 7.39999C7.8999 8.19999 9.1499 8.19999 9.9499 7.39999L16.1999 1.14999L16.8999 1.84999L10.5999 8.09999C10.0499 8.64999 9.2499 8.94999 8.4999 8.94999Z" fill="#B2B2B2"/>
<path d="M15.5 13H1.5C0.65 13 0 12.35 0 11.5V1.5C0 0.65 0.65 0 1.5 0H15.5C16.35 0 17 0.65 17 1.5V11.5C17 12.35 16.35 13 15.5 13ZM1.5 1C1.2 1 1 1.2 1 1.5V11.5C1 11.8 1.2 12 1.5 12H15.5C15.8 12 16 11.8 16 11.5V1.5C16 1.2 15.8 1 15.5 1H1.5Z" fill="#B2B2B2"/>
</svg>
