<svg width="13" height="13" viewBox="0 0 13 13" fill="none" xmlns="http://www.w3.org/2000/svg">
<path d="M12.6056 4.29707L8.94732 3.74032L7.31198 0.268572C7.26732 0.173518 7.19384 0.0965688 7.10306 0.049796C6.87541 -0.0678904 6.59877 0.0301816 6.48495 0.268572L4.84961 3.74032L1.19135 4.29707C1.09049 4.31216 0.99828 4.36195 0.92768 4.43739C0.842327 4.52925 0.795295 4.65284 0.796916 4.781C0.798537 4.90916 0.848679 5.03141 0.936325 5.12087L3.58312 7.82313L2.9578 11.6389C2.94314 11.7277 2.95252 11.8189 2.98488 11.9024C3.01724 11.9859 3.07129 12.0582 3.14089 12.1111C3.21049 12.164 3.29286 12.1955 3.37867 12.2019C3.46447 12.2083 3.55028 12.1894 3.62635 12.1474L6.89847 10.3458L10.1706 12.1474C10.2599 12.1971 10.3637 12.2137 10.4631 12.1956C10.7138 12.1504 10.8824 11.9014 10.8391 11.6389L10.2138 7.82313L12.8606 5.12087C12.9327 5.04694 12.9802 4.95038 12.9946 4.84476C13.0335 4.58072 12.8577 4.3363 12.6056 4.29707Z" fill="#B2B2B2"/>
</svg>
