<svg width="12" height="19" viewBox="0 0 12 19" fill="none" xmlns="http://www.w3.org/2000/svg">
<path d="M1.83198 18.934L10.2471 18.934C10.7119 18.9335 11.1575 18.7486 11.4862 18.42C11.8149 18.0913 11.9997 17.6457 12.0002 17.1809L12.0002 1.75315C11.9997 1.28834 11.8149 0.84272 11.4862 0.514051C11.1575 0.185383 10.7119 0.000513181 10.2471 2.77587e-06L1.83198 3.51154e-06C1.36717 0.000513998 0.92155 0.185383 0.592882 0.514052C0.264213 0.842721 0.0793437 1.28834 0.0788333 1.75315L0.0788346 17.1809C0.0793451 17.6457 0.264215 18.0913 0.592883 18.42C0.921552 18.7486 1.36718 18.9335 1.83198 18.934ZM0.780093 1.75315C0.780394 1.47427 0.891315 1.20689 1.08852 1.00969C1.28572 0.812486 1.5531 0.701565 1.83198 0.701263L10.2471 0.701262C10.526 0.701564 10.7934 0.812485 10.9906 1.00969C11.1878 1.20689 11.2987 1.47427 11.299 1.75315L11.299 17.1809C11.2987 17.4597 11.1878 17.7271 10.9906 17.9243C10.7934 18.1215 10.526 18.2324 10.2471 18.2327L1.83198 18.2327C1.5531 18.2324 1.28572 18.1215 1.08852 17.9243C0.891317 17.7271 0.780396 17.4597 0.780094 17.1809L0.780093 1.75315ZM5.33828 16.8302C5.33828 16.6915 5.37941 16.556 5.45646 16.4406C5.53352 16.3253 5.64304 16.2354 5.77118 16.1823C5.89932 16.1293 6.04032 16.1154 6.17635 16.1424C6.31238 16.1695 6.43733 16.2363 6.5354 16.3344C6.63348 16.4324 6.70027 16.5574 6.72732 16.6934C6.75438 16.8295 6.7405 16.9704 6.68742 17.0986C6.63434 17.2267 6.54446 17.3362 6.42914 17.4133C6.31382 17.4904 6.17824 17.5315 6.03954 17.5315C5.85362 17.5313 5.67539 17.4573 5.54393 17.3258C5.41247 17.1944 5.33851 17.0161 5.33828 16.8302Z" fill="#888888"/>
<line x1="0.350586" y1="14.9277" x2="11.5707" y2="14.9277" stroke="#888888"/>
</svg>
