<svg width="35" height="35" viewBox="0 0 35 35" fill="none" xmlns="http://www.w3.org/2000/svg">
<path d="M35 17.5C35 27.165 27.165 35 17.5 35C7.83502 35 0 27.165 0 17.5C0 7.83502 7.83502 0 17.5 0C27.165 0 35 7.83502 35 17.5Z" fill="#C1C1C1"/>
<path d="M24.9959 16.5597C23.6202 16.563 22.2781 16.1339 21.1594 15.3331V20.9181C21.159 21.9525 20.8428 22.9622 20.2532 23.812C19.6635 24.6619 18.8284 25.3115 17.8596 25.6739C16.8907 26.0364 15.8343 26.0944 14.8317 25.8402C13.829 25.5861 12.9277 25.0319 12.2485 24.2517C11.5693 23.4716 11.1445 22.5026 11.0308 21.4745C10.9171 20.4464 11.12 19.408 11.6124 18.4983C12.1048 17.5886 12.8631 16.8509 13.7861 16.3839C14.709 15.9168 15.7526 15.7427 16.7772 15.8847V18.6938C16.3083 18.5463 15.8049 18.5507 15.3387 18.7064C14.8725 18.8622 14.4674 19.1612 14.1813 19.5609C13.8953 19.9606 13.7428 20.4404 13.7457 20.9319C13.7486 21.4234 13.9067 21.9014 14.1975 22.2977C14.4882 22.694 14.8968 22.9882 15.3648 23.1385C15.8328 23.2887 16.3363 23.2872 16.8033 23.1342C17.2704 22.9812 17.6772 22.6845 17.9657 22.2866C18.2541 21.8886 18.4094 21.4096 18.4094 20.9181V10H21.1594C21.1575 10.2322 21.1769 10.4641 21.2175 10.6928C21.3131 11.2033 21.5118 11.6889 21.8014 12.1199C22.0911 12.551 22.4657 12.9184 22.9022 13.1997C23.5233 13.6103 24.2514 13.8292 24.9959 13.8291V16.5597Z" fill="#464749"/>
</svg>
