<svg width="20" height="17" viewBox="0 0 20 17" fill="none" xmlns="http://www.w3.org/2000/svg">
<path fill-rule="evenodd" clip-rule="evenodd" d="M12.6098 1H16.5166C17.0945 1 17.6487 1.22956 18.0573 1.63818C18.4659 2.0468 18.6955 2.60101 18.6955 3.17889V7.08565C18.6954 7.37456 18.5806 7.65162 18.3763 7.85588L10.9757 15.2565C10.567 15.665 10.0129 15.8944 9.43517 15.8944C8.85741 15.8944 8.3033 15.665 7.8947 15.2565L4.43898 11.8008C4.0305 11.3922 3.80103 10.8381 3.80103 10.2603C3.80103 9.68253 4.0305 9.12842 4.43898 8.71981L11.8396 1.31921C12.0438 1.11488 12.3209 1.00006 12.6098 1V1Z" stroke="#888888" stroke-linecap="round" stroke-linejoin="round"/>
<path d="M7.80093 15.1628L5.60788 16.2588C5.33479 16.3954 5.03604 16.473 4.73101 16.4867C4.42598 16.5004 4.12148 16.4498 3.83726 16.3383C3.55303 16.2267 3.29542 16.0567 3.08114 15.8391C2.86685 15.6216 2.70067 15.3615 2.59338 15.0756L0.833925 10.3845C0.650743 9.89577 0.649072 9.35754 0.829215 8.86769C1.00936 8.37785 1.35935 7.96894 1.81552 7.71535L9.97983 3.17889" stroke="#888888" stroke-linecap="round" stroke-linejoin="round"/>
<path d="M17.0612 3.72362C17.0612 3.12193 16.5735 2.63417 15.9718 2.63417C15.3701 2.63417 14.8823 3.12193 14.8823 3.72362C14.8823 4.3253 15.3701 4.81306 15.9718 4.81306C16.5735 4.81306 17.0612 4.3253 17.0612 3.72362Z" fill="#888888"/>
</svg>
