<svg width="12" height="3" viewBox="0 0 12 3" fill="none" xmlns="http://www.w3.org/2000/svg">
<path d="M6.00016 3.87504e-08C5.81167 3.45993e-08 5.62503 0.0387986 5.45089 0.114181C5.27675 0.189563 5.11852 0.300052 4.98524 0.43934C4.85196 0.578628 4.74623 0.743986 4.6741 0.925975C4.60197 1.10796 4.56485 1.30302 4.56485 1.5C4.56485 1.69698 4.60197 1.89204 4.6741 2.07403C4.74623 2.25601 4.85196 2.42137 4.98524 2.56066C5.11852 2.69995 5.27675 2.81044 5.45089 2.88582C5.62503 2.9612 5.81167 3 6.00016 3C6.38083 2.99991 6.74588 2.84179 7.01499 2.56042C7.2841 2.27905 7.43524 1.89748 7.43515 1.49966C7.43507 1.10183 7.28376 0.72034 7.01453 0.439099C6.74529 0.157858 6.38018 -9.0323e-05 5.99951 3.87504e-08H6.00016ZM1.43532 3.87504e-08C1.24683 3.45993e-08 1.06019 0.0387986 0.886045 0.114181C0.711905 0.189563 0.553676 0.300052 0.420395 0.43934C0.287113 0.578628 0.181389 0.743986 0.109257 0.925975C0.0371256 1.10796 0 1.30302 0 1.5C0 1.69698 0.0371256 1.89204 0.109257 2.07403C0.181389 2.25601 0.287113 2.42137 0.420395 2.56066C0.553676 2.69995 0.711905 2.81044 0.886045 2.88582C1.06019 2.9612 1.24683 3 1.43532 3C1.81599 2.99991 2.18103 2.84179 2.45015 2.56042C2.71926 2.27905 2.8704 1.89748 2.87031 1.49966C2.87022 1.10183 2.71892 0.72034 2.44968 0.439099C2.18045 0.157858 1.81534 -9.0323e-05 1.43467 3.87504e-08H1.43532ZM10.565 3.87504e-08C10.3765 3.45993e-08 10.1899 0.0387986 10.0157 0.114181C9.84159 0.189563 9.68337 0.300052 9.55009 0.43934C9.4168 0.578628 9.31108 0.743986 9.23895 0.925975C9.16682 1.10796 9.12969 1.30302 9.12969 1.5C9.12969 1.69698 9.16682 1.89204 9.23895 2.07403C9.31108 2.25601 9.4168 2.42137 9.55009 2.56066C9.68337 2.69995 9.84159 2.81044 10.0157 2.88582C10.1899 2.9612 10.3765 3 10.565 3C10.9457 2.99991 11.3107 2.84179 11.5798 2.56042C11.8489 2.27905 12.0001 1.89748 12 1.49966C11.9999 1.10183 11.8486 0.72034 11.5794 0.439099C11.3101 0.157858 10.945 -9.0323e-05 10.5644 3.87504e-08H10.565Z" fill="#888888"/>
</svg>
