<svg width="18" height="18" viewBox="0 0 18 18" fill="none" xmlns="http://www.w3.org/2000/svg">
<path d="M9.54115 7.801C9.51667 7.66576 9.44243 7.54458 9.33307 7.46134C9.2237 7.3781 9.08713 7.33882 8.95026 7.35123C8.81338 7.36365 8.68611 7.42687 8.59351 7.52844C8.50091 7.63 8.4497 7.76256 8.44995 7.9V12.8522L8.45875 12.9512C8.48324 13.0864 8.55747 13.2076 8.66684 13.2909C8.7762 13.3741 8.91277 13.4134 9.04965 13.401C9.18653 13.3885 9.3138 13.3253 9.40639 13.2238C9.49899 13.1222 9.55021 12.9896 9.54995 12.8522V7.9L9.54115 7.801Z" fill="#888888"/>
<path d="M9.87876 5.42499C9.87876 5.20619 9.79184 4.99635 9.63712 4.84163C9.48241 4.68691 9.27256 4.59999 9.05376 4.59999C8.83496 4.59999 8.62511 4.68691 8.4704 4.84163C8.31568 4.99635 8.22876 5.20619 8.22876 5.42499C8.22876 5.64379 8.31568 5.85364 8.4704 6.00835C8.62511 6.16307 8.83496 6.24999 9.05376 6.24999C9.27256 6.24999 9.48241 6.16307 9.63712 6.00835C9.79184 5.85364 9.87876 5.64379 9.87876 5.42499Z" fill="#888888"/>
<path d="M17.7999 9C17.7999 6.66609 16.8728 4.42778 15.2225 2.77746C13.5722 1.12714 11.3339 0.199997 8.99995 0.199997C6.66605 0.199997 4.42773 1.12714 2.77741 2.77746C1.12709 4.42778 0.199951 6.66609 0.199951 9C0.199951 11.3339 1.12709 13.5722 2.77741 15.2225C4.42773 16.8729 6.66605 17.8 8.99995 17.8C11.3339 17.8 13.5722 16.8729 15.2225 15.2225C16.8728 13.5722 17.7999 11.3339 17.7999 9ZM1.29995 9C1.29995 7.98882 1.49912 6.98754 1.88608 6.05333C2.27304 5.11913 2.84022 4.27029 3.55523 3.55527C4.27024 2.84026 5.11908 2.27309 6.05329 1.88612C6.9875 1.49916 7.98877 1.3 8.99995 1.3C10.0111 1.3 11.0124 1.49916 11.9466 1.88612C12.8808 2.27309 13.7297 2.84026 14.4447 3.55527C15.1597 4.27029 15.7269 5.11913 16.1138 6.05333C16.5008 6.98754 16.6999 7.98882 16.6999 9C16.6999 11.0422 15.8887 13.0007 14.4447 14.4447C13.0006 15.8887 11.0421 16.7 8.99995 16.7C6.95778 16.7 4.99926 15.8887 3.55523 14.4447C2.1112 13.0007 1.29995 11.0422 1.29995 9Z" fill="#888888"/>
</svg>
