<svg width="16" height="17" viewBox="0 0 16 17" fill="none" xmlns="http://www.w3.org/2000/svg">
<path d="M12.926 10.9354C12.4659 10.9377 12.0121 11.0418 11.5981 11.2402C11.1842 11.4386 10.8207 11.7261 10.5345 12.0816L6.04038 9.31007C6.20417 8.78861 6.20417 8.23047 6.04038 7.70901L10.5345 4.93748C10.9906 5.49464 11.632 5.87457 12.3449 6.00995C13.0578 6.14533 13.7963 6.02743 14.4295 5.67713C15.0628 5.32684 15.5499 4.76676 15.8046 4.0961C16.0593 3.42545 16.0651 2.68752 15.8211 2.01302C15.577 1.33852 15.0988 0.771003 14.4712 0.410989C13.8436 0.0509762 13.1071 -0.0782917 12.3921 0.0460851C11.6772 0.170462 11.0299 0.540455 10.565 1.09052C10.1001 1.64059 9.84752 2.33523 9.85208 3.05138C9.85499 3.32258 9.89637 3.59204 9.97504 3.85191L5.48092 6.62344C5.08416 6.13074 4.54185 5.772 3.92915 5.59694C3.31646 5.42188 2.66374 5.43918 2.06146 5.64644C1.45918 5.8537 0.937173 6.24065 0.567805 6.75365C0.198437 7.26666 0 7.8803 0 8.50954C0 9.13877 0.198437 9.75242 0.567805 10.2654C0.937173 10.7784 1.45918 11.1654 2.06146 11.3726C2.66374 11.5799 3.31646 11.5972 3.92915 11.4221C4.54185 11.2471 5.08416 10.8883 5.48092 10.3956L9.97504 13.1672C9.89637 13.427 9.85499 13.6965 9.85208 13.9677C9.85208 14.5674 10.0324 15.1537 10.3701 15.6524C10.7079 16.151 11.188 16.5397 11.7497 16.7692C12.3114 16.9987 12.9295 17.0587 13.5257 16.9417C14.122 16.8247 14.6698 16.5359 15.0997 16.1119C15.5296 15.6878 15.8223 15.1475 15.9409 14.5593C16.0595 13.9711 15.9987 13.3614 15.766 12.8073C15.5333 12.2532 15.1393 11.7796 14.6338 11.4464C14.1283 11.1132 13.534 10.9354 12.926 10.9354ZM12.926 1.232C13.2908 1.232 13.6474 1.3387 13.9507 1.53862C14.254 1.73854 14.4904 2.02269 14.63 2.35513C14.7696 2.68758 14.8061 3.0534 14.735 3.40633C14.6638 3.75925 14.4882 4.08344 14.2302 4.33788C13.9723 4.59233 13.6436 4.76561 13.2859 4.83581C12.9281 4.90601 12.5572 4.86998 12.2202 4.73228C11.8832 4.59457 11.5952 4.36138 11.3925 4.06218C11.1898 3.76298 11.0817 3.41122 11.0817 3.05138C11.0817 2.56885 11.276 2.10609 11.6219 1.76488C11.9678 1.42368 12.4369 1.232 12.926 1.232ZM3.08938 10.3289C2.7246 10.3289 2.36801 10.2222 2.0647 10.0223C1.76139 9.82238 1.525 9.53823 1.3854 9.20579C1.2458 8.87334 1.20928 8.50752 1.28044 8.15459C1.35161 7.80167 1.52727 7.47748 1.78521 7.22304C2.04315 6.96859 2.37179 6.79531 2.72956 6.72511C3.08733 6.65491 3.45818 6.69094 3.79519 6.82864C4.13221 6.96635 4.42026 7.19954 4.62292 7.49874C4.82558 7.79794 4.93375 8.1497 4.93375 8.50954C4.93375 8.99207 4.73944 9.45484 4.39355 9.79604C4.04766 10.1372 3.57854 10.3289 3.08938 10.3289ZM12.926 15.7871C12.5613 15.7871 12.2047 15.6804 11.9014 15.4805C11.5981 15.2805 11.3617 14.9964 11.2221 14.6639C11.0825 14.3315 11.0459 13.9657 11.1171 13.6127C11.1883 13.2598 11.3639 12.9356 11.6219 12.6812C11.8798 12.4267 12.2084 12.2535 12.5662 12.1833C12.924 12.1131 13.2948 12.1491 13.6319 12.2868C13.9689 12.4245 14.2569 12.6577 14.4596 12.9569C14.6622 13.2561 14.7704 13.6079 14.7704 13.9677C14.7704 14.4502 14.5761 14.913 14.2302 15.2542C13.8843 15.5954 13.4152 15.7871 12.926 15.7871Z" fill="#888888"/>
</svg>
