<svg width="16" height="16" viewBox="0 0 16 16" fill="none" xmlns="http://www.w3.org/2000/svg">
<circle cx="8.5" cy="7.5" r="7.5" fill="#3BE0D9"/>
<path d="M10.97 4.96999C11.1109 4.83588 11.2984 4.76173 11.4929 4.76321C11.6873 4.76468 11.8737 4.84165 12.0125 4.97787C12.1513 5.1141 12.2318 5.29893 12.2369 5.49336C12.2421 5.68779 12.1715 5.87661 12.04 6.01999L8.05004 11.01C7.98143 11.0839 7.89862 11.1432 7.80657 11.1844C7.71452 11.2255 7.61511 11.2477 7.51429 11.2496C7.41347 11.2514 7.31331 11.2329 7.21979 11.1952C7.12628 11.1575 7.04133 11.1013 6.97004 11.03L4.32404 8.38399C4.25035 8.31532 4.19125 8.23252 4.15025 8.14052C4.10926 8.04853 4.08722 7.94921 4.08544 7.84851C4.08367 7.74781 4.10219 7.64778 4.13991 7.55439C4.17763 7.461 4.23378 7.37617 4.305 7.30495C4.37622 7.23373 4.46105 7.17758 4.55444 7.13986C4.64783 7.10214 4.74786 7.08362 4.84856 7.08539C4.94926 7.08717 5.04857 7.10921 5.14057 7.15021C5.23257 7.1912 5.31537 7.2503 5.38404 7.32399L7.47804 9.41699L10.951 4.99199C10.9573 4.98429 10.964 4.97694 10.971 4.96999H10.97Z" fill="white"/>
</svg>
