<svg width="19" height="22" viewBox="0 0 19 22" fill="none" xmlns="http://www.w3.org/2000/svg">
<path d="M18.714 17.9347L17.6115 16.8321L15.595 18.8485V12.4764H14.0355V18.8485L12.0191 16.8321L10.9165 17.9347L14.8153 21.8334L18.714 17.9347Z" fill="#F45E5E"/>
<path d="M9.35705 20.2739H1.55951V1.55977H7.79754V6.2383C7.79878 6.65153 7.96348 7.04748 8.25568 7.33968C8.54787 7.63187 8.94383 7.79658 9.35705 7.79781H14.0356V10.1371H15.5951V6.2383C15.5978 6.13582 15.5784 6.03397 15.538 5.93974C15.4976 5.84551 15.4373 5.76115 15.3612 5.69247L9.90288 0.234191C9.83423 0.158044 9.74988 0.0976958 9.65565 0.0573097C9.56141 0.0169236 9.45954 -0.00253875 9.35705 0.000265148H1.55951C1.14628 0.00149929 0.750331 0.166201 0.458133 0.458398C0.165935 0.750596 0.00123414 1.14655 0 1.55977V20.2739C0.00123414 20.6871 0.165935 21.0831 0.458133 21.3753C0.750331 21.6675 1.14628 21.8322 1.55951 21.8334H9.35705V20.2739ZM9.35705 1.87168L13.7237 6.2383H9.35705V1.87168Z" fill="#F45E5E"/>
</svg>
