<svg width="13" height="13" viewBox="0 0 13 13" fill="none" xmlns="http://www.w3.org/2000/svg">
<path d="M12.1837 4.29707L8.52545 3.74032L6.89011 0.268572C6.84544 0.173518 6.77196 0.0965688 6.68119 0.049796C6.45354 -0.0678904 6.1769 0.0301816 6.06307 0.268572L4.42774 3.74032L0.769476 4.29707C0.668618 4.31216 0.576405 4.36195 0.505805 4.43739C0.420452 4.52925 0.37342 4.65284 0.375041 4.781C0.376662 4.90916 0.426804 5.03141 0.51445 5.12087L3.16125 7.82313L2.53593 11.6389C2.52127 11.7277 2.53065 11.8189 2.56301 11.9024C2.59537 11.9859 2.64941 12.0582 2.71901 12.1111C2.78862 12.164 2.87099 12.1955 2.95679 12.2019C3.0426 12.2083 3.1284 12.1894 3.20447 12.1474L6.47659 10.3458L9.74871 12.1474C9.83804 12.1971 9.94178 12.2137 10.0412 12.1956C10.2919 12.1504 10.4605 11.9014 10.4173 11.6389L9.79193 7.82313L12.4387 5.12087C12.5108 5.04694 12.5583 4.95038 12.5727 4.84476C12.6116 4.58072 12.4359 4.3363 12.1837 4.29707Z" fill="#FF8A48"/>
</svg>
