<svg width="24" height="24" viewBox="0 0 37 37" fill="none" xmlns="http://www.w3.org/2000/svg">
<path d="M18.5 34.6875C14.2068 34.6875 10.0895 32.982 7.05371 29.9463C4.01796 26.9105 2.3125 22.7932 2.3125 18.5C2.3125 14.2068 4.01796 10.0895 7.05371 7.05371C10.0895 4.01796 14.2068 2.3125 18.5 2.3125C22.7932 2.3125 26.9105 4.01796 29.9463 7.05371C32.982 10.0895 34.6875 14.2068 34.6875 18.5C34.6875 22.7932 32.982 26.9105 29.9463 29.9463C26.9105 32.982 22.7932 34.6875 18.5 34.6875ZM18.5 37C23.4065 37 28.1121 35.0509 31.5815 31.5815C35.0509 28.1121 37 23.4065 37 18.5C37 13.5935 35.0509 8.88795 31.5815 5.41852C28.1121 1.9491 23.4065 0 18.5 0C13.5935 0 8.88795 1.9491 5.41852 5.41852C1.9491 8.88795 0 13.5935 0 18.5C0 23.4065 1.9491 28.1121 5.41852 31.5815C8.88795 35.0509 13.5935 37 18.5 37V37Z" fill="#B2B2B2"/>
<path d="M18.5 9.25C18.8067 9.25 19.1008 9.37182 19.3176 9.58866C19.5344 9.8055 19.6562 10.0996 19.6562 10.4062V17.3438H26.5938C26.9004 17.3438 27.1945 17.4656 27.4113 17.6824C27.6282 17.8992 27.75 18.1933 27.75 18.5C27.75 18.8067 27.6282 19.1008 27.4113 19.3176C27.1945 19.5344 26.9004 19.6562 26.5938 19.6562H19.6562V26.5938C19.6562 26.9004 19.5344 27.1945 19.3176 27.4113C19.1008 27.6282 18.8067 27.75 18.5 27.75C18.1933 27.75 17.8992 27.6282 17.6824 27.4113C17.4656 27.1945 17.3438 26.9004 17.3438 26.5938V19.6562H10.4062C10.0996 19.6562 9.8055 19.5344 9.58866 19.3176C9.37182 19.1008 9.25 18.8067 9.25 18.5C9.25 18.1933 9.37182 17.8992 9.58866 17.6824C9.8055 17.4656 10.0996 17.3438 10.4062 17.3438H17.3438V10.4062C17.3438 10.0996 17.4656 9.8055 17.6824 9.58866C17.8992 9.37182 18.1933 9.25 18.5 9.25V9.25Z" fill="#B2B2B2"/>
</svg>
