<svg width="14" height="11" viewBox="0 0 14 11" fill="none" xmlns="http://www.w3.org/2000/svg">
<path fill-rule="evenodd" clip-rule="evenodd" d="M4 9.5C4 9.36739 4.05268 9.24021 4.14645 9.14645C4.24021 9.05268 4.36739 9 4.5 9H13.5C13.6326 9 13.7598 9.05268 13.8536 9.14645C13.9473 9.24021 14 9.36739 14 9.5C14 9.63261 13.9473 9.75979 13.8536 9.85355C13.7598 9.94732 13.6326 10 13.5 10H4.5C4.36739 10 4.24021 9.94732 4.14645 9.85355C4.05268 9.75979 4 9.63261 4 9.5ZM4 5.5C4 5.36739 4.05268 5.24021 4.14645 5.14645C4.24021 5.05268 4.36739 5 4.5 5H13.5C13.6326 5 13.7598 5.05268 13.8536 5.14645C13.9473 5.24021 14 5.36739 14 5.5C14 5.63261 13.9473 5.75979 13.8536 5.85355C13.7598 5.94732 13.6326 6 13.5 6H4.5C4.36739 6 4.24021 5.94732 4.14645 5.85355C4.05268 5.75979 4 5.63261 4 5.5ZM4 1.5C4 1.36739 4.05268 1.24021 4.14645 1.14645C4.24021 1.05268 4.36739 1 4.5 1H13.5C13.6326 1 13.7598 1.05268 13.8536 1.14645C13.9473 1.24021 14 1.36739 14 1.5C14 1.63261 13.9473 1.75979 13.8536 1.85355C13.7598 1.94732 13.6326 2 13.5 2H4.5C4.36739 2 4.24021 1.94732 4.14645 1.85355C4.05268 1.75979 4 1.63261 4 1.5ZM1 2.5C1.26522 2.5 1.51957 2.39464 1.70711 2.20711C1.89464 2.01957 2 1.76522 2 1.5C2 1.23478 1.89464 0.98043 1.70711 0.792893C1.51957 0.605357 1.26522 0.5 1 0.5C0.734784 0.5 0.48043 0.605357 0.292893 0.792893C0.105357 0.98043 0 1.23478 0 1.5C0 1.76522 0.105357 2.01957 0.292893 2.20711C0.48043 2.39464 0.734784 2.5 1 2.5ZM1 6.5C1.26522 6.5 1.51957 6.39464 1.70711 6.20711C1.89464 6.01957 2 5.76522 2 5.5C2 5.23478 1.89464 4.98043 1.70711 4.79289C1.51957 4.60536 1.26522 4.5 1 4.5C0.734784 4.5 0.48043 4.60536 0.292893 4.79289C0.105357 4.98043 0 5.23478 0 5.5C0 5.76522 0.105357 6.01957 0.292893 6.20711C0.48043 6.39464 0.734784 6.5 1 6.5ZM1 10.5C1.26522 10.5 1.51957 10.3946 1.70711 10.2071C1.89464 10.0196 2 9.76522 2 9.5C2 9.23478 1.89464 8.98043 1.70711 8.79289C1.51957 8.60536 1.26522 8.5 1 8.5C0.734784 8.5 0.48043 8.60536 0.292893 8.79289C0.105357 8.98043 0 9.23478 0 9.5C0 9.76522 0.105357 10.0196 0.292893 10.2071C0.48043 10.3946 0.734784 10.5 1 10.5Z" fill="white"/>
</svg>
