<svg width="35" height="35" viewBox="0 0 35 35" fill="none" xmlns="http://www.w3.org/2000/svg">
<circle cx="17.5" cy="17.5" r="17.5" fill="#FFDBD3"/>
<path d="M18 10C16.1004 10 15.8615 10.0088 15.1151 10.042C14.3688 10.077 13.8604 10.1942 13.415 10.3675C12.9478 10.5432 12.5247 10.8188 12.1751 11.1751C11.8191 11.5249 11.5435 11.948 11.3675 12.415C11.1942 12.8595 11.0761 13.3687 11.042 14.1125C11.0088 14.8606 11 15.0986 11 17.0009C11 18.9014 11.0088 19.1394 11.042 19.8857C11.077 20.6313 11.1942 21.1396 11.3675 21.585C11.5469 22.0452 11.7858 22.4355 12.1751 22.8249C12.5636 23.2142 12.9539 23.454 13.4141 23.6325C13.8604 23.8057 14.3679 23.9239 15.1134 23.958C15.8606 23.9913 16.0986 24 18 24C19.9014 24 20.1385 23.9913 20.8857 23.958C21.6304 23.923 22.1405 23.8057 22.5859 23.6325C23.0527 23.4567 23.4756 23.1811 23.8249 22.8249C24.2142 22.4355 24.4531 22.0452 24.6325 21.585C24.8049 21.1396 24.923 20.6313 24.958 19.8857C24.9913 19.1394 25 18.9014 25 17C25 15.0986 24.9913 14.8606 24.958 14.1134C24.923 13.3688 24.8049 12.8595 24.6325 12.415C24.4566 11.9479 24.181 11.5248 23.8249 11.1751C23.4754 10.8187 23.0522 10.5431 22.585 10.3675C22.1388 10.1942 21.6295 10.0761 20.8849 10.042C20.1376 10.0088 19.9005 10 17.9983 10H18.0009H18ZM17.3726 11.2617H18.0009C19.8699 11.2617 20.0912 11.2679 20.8289 11.302C21.5114 11.3326 21.8824 11.4473 22.1291 11.5426C22.4555 11.6695 22.6891 11.8218 22.9341 12.0668C23.1791 12.3117 23.3305 12.5445 23.4574 12.8718C23.5536 13.1176 23.6674 13.4886 23.698 14.1711C23.7321 14.9088 23.7391 15.1301 23.7391 16.9983C23.7391 18.8664 23.7321 19.0886 23.698 19.8263C23.6674 20.5087 23.5528 20.8789 23.4574 21.1256C23.3451 21.4296 23.166 21.7044 22.9332 21.9297C22.6882 22.1747 22.4555 22.3261 22.1283 22.453C21.8833 22.5493 21.5122 22.663 20.8289 22.6945C20.0912 22.7278 19.8699 22.7356 18.0009 22.7356C16.1319 22.7356 15.9096 22.7278 15.172 22.6945C14.4895 22.663 14.1194 22.5493 13.8726 22.453C13.5686 22.3409 13.2935 22.1621 13.0676 21.9297C12.8347 21.704 12.6553 21.429 12.5426 21.1248C12.4473 20.8789 12.3326 20.5079 12.302 19.8254C12.2688 19.0878 12.2617 18.8664 12.2617 16.9965C12.2617 15.1275 12.2688 14.907 12.302 14.1694C12.3335 13.4869 12.4473 13.1159 12.5435 12.8691C12.6704 12.5428 12.8226 12.3091 13.0676 12.0641C13.3126 11.8191 13.5454 11.6678 13.8726 11.5409C14.1194 11.4446 14.4895 11.3309 15.172 11.2994C15.8177 11.2696 16.068 11.2609 17.3726 11.26V11.2617ZM21.7371 12.4237C21.6268 12.4237 21.5176 12.4455 21.4157 12.4877C21.3138 12.5299 21.2212 12.5918 21.1432 12.6698C21.0652 12.7478 21.0033 12.8404 20.9611 12.9423C20.9189 13.0442 20.8971 13.1534 20.8971 13.2638C20.8971 13.3741 20.9189 13.4833 20.9611 13.5852C21.0033 13.6871 21.0652 13.7797 21.1432 13.8577C21.2212 13.9357 21.3138 13.9976 21.4157 14.0398C21.5176 14.082 21.6268 14.1038 21.7371 14.1038C21.9599 14.1038 22.1736 14.0153 22.3311 13.8577C22.4886 13.7002 22.5771 13.4865 22.5771 13.2638C22.5771 13.041 22.4886 12.8273 22.3311 12.6698C22.1736 12.5122 21.9599 12.4237 21.7371 12.4237ZM18.0009 13.4055C17.5241 13.3981 17.0505 13.4855 16.6079 13.6629C16.1652 13.8402 15.7622 14.1038 15.4224 14.4384C15.0826 14.7729 14.8127 15.1717 14.6285 15.6116C14.4443 16.0515 14.3494 16.5236 14.3494 17.0004C14.3494 17.4773 14.4443 17.9494 14.6285 18.3893C14.8127 18.8291 15.0826 19.2279 15.4224 19.5625C15.7622 19.8971 16.1652 20.1607 16.6079 20.338C17.0505 20.5153 17.5241 20.6028 18.0009 20.5954C18.9446 20.5807 19.8447 20.1954 20.5069 19.5228C21.169 18.8503 21.5402 17.9443 21.5402 17.0004C21.5402 16.0566 21.169 15.1506 20.5069 14.478C19.8447 13.8055 18.9446 13.4202 18.0009 13.4055ZM18.0009 14.6664C18.6198 14.6664 19.2134 14.9122 19.651 15.3499C20.0886 15.7875 20.3345 16.3811 20.3345 17C20.3345 17.6189 20.0886 18.2125 19.651 18.6501C19.2134 19.0878 18.6198 19.3336 18.0009 19.3336C17.382 19.3336 16.7884 19.0878 16.3508 18.6501C15.9131 18.2125 15.6673 17.6189 15.6673 17C15.6673 16.3811 15.9131 15.7875 16.3508 15.3499C16.7884 14.9122 17.382 14.6664 18.0009 14.6664Z" fill="#F1749E"/>
</svg>
