<svg xmlns="http://www.w3.org/2000/svg" width="18" height="16" viewBox="0 0 18 16">
  <g id="icon-alert" transform="translate(-1 -11.996)">
    <g id="Group_105" data-name="Group 105" transform="translate(1 11.996)">
      <g id="Group_104" data-name="Group 104">
        <g id="Group_99" data-name="Group 99" transform="translate(15.366 5.051)">
          <path id="Path_196" data-name="Path 196" d="M18.5,18v.842a1.685,1.685,0,1,1,0,3.367v.842A2.528,2.528,0,1,0,18.5,18Z" transform="translate(-18.5 -17.996)" fill="#5c5c5c"/>
        </g>
        <path id="Path_197" data-name="Path 197" d="M6.572,24.563,7,28.886l-1.334.257-.025.023-.737-4.6H4.016l.767,4.776a.9.9,0,0,0,.88.646.875.875,0,0,0,.174-.017L7.17,29.71a.863.863,0,0,0,.558-.36.766.766,0,0,0,.132-.586l-.408-4.2h-.88Z" transform="translate(-1.368 -13.983)" fill="#5c5c5c"/>
        <g id="Group_100" data-name="Group 100" transform="translate(0 1.769)">
          <path id="Path_198" data-name="Path 198" d="M8.439,17.383a.421.421,0,1,1,0-.842,11.834,11.834,0,0,0,6.769-2.362.453.453,0,0,1,.614.088.409.409,0,0,1-.092.588A12.726,12.726,0,0,1,8.439,17.383Z" transform="translate(-1.854 -14.097)" fill="#5c5c5c"/>
          <path id="Path_199" data-name="Path 199" d="M16.346,27.911a.446.446,0,0,1-.324-.137c-.036-.037-3.613-4.043-8.469-4.043H3.085A2.1,2.1,0,0,1,1,21.721V18.984A2.066,2.066,0,0,1,3.085,17l2.744,0a.421.421,0,1,1,0,.842h0l-2.744,0a1.194,1.194,0,0,0-1.207,1.146v2.738a1.235,1.235,0,0,0,1.207,1.168H7.552c5.252,0,8.962,4.153,9.118,4.317a.409.409,0,0,1-.028.594A.45.45,0,0,1,16.346,27.911Z" transform="translate(-1 -14.555)" fill="#5c5c5c"/>
        </g>
        <rect id="Rectangle_1" data-name="Rectangle 1" width="0.878" height="5.824" transform="translate(6.146 4.665)" fill="#5c5c5c"/>
        <g id="Group_101" data-name="Group 101" transform="translate(14.927)">
          <path id="Path_200" data-name="Path 200" d="M18.439,27.149A.43.43,0,0,1,18,26.728V12.417a.439.439,0,0,1,.878,0V26.728A.43.43,0,0,1,18.439,27.149Z" transform="translate(-18 -11.996)" fill="#5c5c5c"/>
        </g>
        <g id="Group_102" data-name="Group 102" transform="translate(1.756 7.58)">
          <path id="Path_201" data-name="Path 201" d="M4.317,21.842H3.439a.421.421,0,1,1,0-.842h.878a.421.421,0,1,1,0,.842Z" transform="translate(-3 -21)" fill="#5c5c5c"/>
        </g>
        <g id="Group_103" data-name="Group 103" transform="translate(1.756 5.896)">
          <path id="Path_202" data-name="Path 202" d="M4.317,19.842H3.439a.421.421,0,1,1,0-.842h.878a.421.421,0,1,1,0,.842Z" transform="translate(-3 -19)" fill="#5c5c5c"/>
        </g>
      </g>
    </g>
  </g>
</svg>
