<svg id="icon-brand" xmlns="http://www.w3.org/2000/svg" width="17.649" height="18" viewBox="0 0 17.649 18">
  <path id="Path_192" data-name="Path 192" d="M50.874,108h-5.7a1.566,1.566,0,0,0,0,3.127h5.7a1.567,1.567,0,0,0,0-3.127Zm0,2.344h-5.7a.787.787,0,0,1,0-1.561h5.7a.788.788,0,0,1,0,1.561Z" transform="translate(-39.428 -97.435)" fill="#5c5c5c"/>
  <path id="Path_193" data-name="Path 193" d="M45.291,51.953h3.114a1.557,1.557,0,0,0,1.588-1.52,1.492,1.492,0,0,0-1.588-1.454H45.291A1.492,1.492,0,0,0,43.7,50.433,1.557,1.557,0,0,0,45.291,51.953Zm0-2.192h3.114a.727.727,0,0,1,.805.672.774.774,0,0,1-.805.737H45.291a.774.774,0,0,1-.805-.737A.727.727,0,0,1,45.291,49.761Z" transform="translate(-39.428 -44.187)" fill="#5c5c5c"/>
  <path id="Path_194" data-name="Path 194" d="M17.6,8.115c-.106-1.242-1.422-1.685-2.1-1.746-.151-.014-.439-.013-.681-.01V5.966A6,6,0,0,0,9.109,0H5.591A5.866,5.866,0,0,0,0,5.966v6.292a5.665,5.665,0,0,0,5.591,5.723l2.988,0L8.572,18h4.181c.326,0,4.555-.1,4.851-5.072C17.608,12.78,17.7,9.311,17.6,8.115Zm-.78,4.778c-.259,4.362-3.912,4.33-4.077,4.324H9.659l.006-.019H5.591a4.881,4.881,0,0,1-4.809-4.94V5.966A5.074,5.074,0,0,1,5.591.783H9.109a5.193,5.193,0,0,1,4.928,5.184V7.161l.4-.012c.21-.006.8-.019.992,0,.013,0,1.315.128,1.392,1.033C16.921,9.333,16.822,12.87,16.822,12.893Z" transform="translate(0)" fill="#5c5c5c"/>
</svg>
