<svg width="13" height="14" viewBox="0 0 13 14" fill="none" xmlns="http://www.w3.org/2000/svg">
<path d="M12.1657 6.14776H2.84691L6.91816 1.96705C7.24352 1.63294 7.24352 1.08465 6.91816 0.750537C6.84097 0.671118 6.7493 0.60811 6.64837 0.565119C6.54745 0.522128 6.43926 0.5 6.32999 0.5C6.22073 0.5 6.11254 0.522128 6.01162 0.565119C5.91069 0.60811 5.81901 0.671118 5.74183 0.750537L0.243978 6.39621C0.166638 6.47546 0.105279 6.56961 0.0634144 6.67324C0.0215494 6.77688 0 6.88798 0 7.00018C0 7.11238 0.0215494 7.22348 0.0634144 7.32712C0.105279 7.43076 0.166638 7.5249 0.243978 7.60416L5.74183 13.2498C5.81907 13.3291 5.91077 13.3921 6.01168 13.435C6.1126 13.4779 6.22076 13.5 6.32999 13.5C6.43923 13.5 6.54739 13.4779 6.6483 13.435C6.74922 13.3921 6.84092 13.3291 6.91816 13.2498C6.99539 13.1705 7.05666 13.0764 7.09846 12.9727C7.14026 12.8691 7.16178 12.758 7.16178 12.6459C7.16178 12.5337 7.14026 12.4226 7.09846 12.319C7.05666 12.2154 6.99539 12.1212 6.91816 12.0419L2.84691 7.86117H12.1657C12.6246 7.86117 13 7.47565 13 7.00447C13 6.53328 12.6246 6.14776 12.1657 6.14776Z" fill="white"/>
</svg>
