<svg xmlns="http://www.w3.org/2000/svg" width="120" height="68" viewBox="0 0 120 68">
  <g id="Group_3" data-name="Group 3" transform="translate(0 -2)">
    <path id="Path_15" data-name="Path 15" d="M9.874,566.78H8.728v6.8c0,2.9-1.873,3.507-3.792,3.507s-3.792-.605-3.792-3.507v-6.8H0v6.8c0,2.033.557,4.563,4.937,4.563s4.937-2.53,4.937-4.563Z" transform="translate(0 -508.14)" fill="#464749"/>
    <path id="Path_16" data-name="Path 16" d="M148.6,567.835h4.658c1.315,0,2.244.482,2.244,2.142,0,1.3-.557,2.173-2.476,2.173H148.6Zm-1.13,10.026h1.145L148.6,573.2h4.3c2.476,0,3.838-1.117,3.838-3.228a3,3,0,0,0-3.327-3.2h-5.958Z" transform="translate(-132.708 -508.14)" fill="#464749"/>
    <path id="Path_17" data-name="Path 17" d="M276.474,577.861h1.145l-.016-10.026h4.333V566.78h-9.8v1.055h4.318Z" transform="translate(-244.926 -508.14)" fill="#464749"/>
    <path id="Path_18" data-name="Path 18" d="M409.844,577.861h1.145l-.016-4.873h4.442c1.919,0,2.631.652,2.677,2.607a4.585,4.585,0,0,0,.309,2.266h1.238c-.294-.248-.356-1.6-.4-2.3-.077-1.816-.4-2.825-1.966-3.073v-.031a2.717,2.717,0,0,0,2.167-2.685c0-2.328-1.718-3-3.591-3h-6.02Zm1.129-10.026h4.953c1.052,0,2.275.326,2.275,1.94,0,1.692-1.13,2.157-2.383,2.157h-4.844Z" transform="translate(-368.845 -508.14)" fill="#464749"/>
    <path id="Path_19" data-name="Path 19" d="M556.786,577.861H565.7l-.016-1.055h-7.769v-4.159h7.367v-1.056h-7.367v-3.756h7.645V566.78h-8.79Z" transform="translate(-501.092 -508.14)" fill="#464749"/>
    <path id="Path_20" data-name="Path 20" d="M699.658,577.861H700.8l-.016-9.467h.031l7.785,9.467h1.331l-.015-11.081h-1.145v9.467h-.031l-7.722-9.467h-1.378Z" transform="translate(-629.678 -508.14)" fill="#464749"/>
    <path id="Path_21" data-name="Path 21" d="M850.809,577.861h5.541c3.095,0,4.7-2.421,4.7-5.541,0-3.476-1.671-5.54-4.89-5.54h-5.37Zm1.13-10.026h4.179c2.554,0,3.7,1.552,3.7,4.485,0,3.4-1.718,4.486-3.7,4.486h-4.179Z" transform="translate(-765.714 -508.14)" fill="#464749"/>
    <path id="Path_22" data-name="Path 22" d="M999.175,577.861h8.156l-.016-1.055h-7.011V566.78H999.16Z" transform="translate(-899.243 -508.14)" fill="#464749"/>
    <path id="Path_23" data-name="Path 23" d="M1094.305,577.861h1.145l-.015-4.656,4.968-6.425h-1.486l-4.055,5.277-4.055-5.277h-1.47l4.952,6.425Z" transform="translate(-980.402 -508.14)" fill="#464749"/>
    <path id="Path_24" data-name="Path 24" d="M507,177.926V195.5a11.629,11.629,0,0,1-23.258,0V177.926h7.577V198.15h8.1V177.926Z" transform="translate(-435.367 -158.283)" fill="#464749"/>
    <path id="Path_25" data-name="Path 25" d="M495.371,2,507,12.044H483.742Z" transform="translate(-435.368 0)" fill="#53c0d0" fill-rule="evenodd"/>
  </g>
</svg>
